<svg width="16" height="16" viewBox="0 0 16 16" fill="none" xmlns="http://www.w3.org/2000/svg">
<path d="M8 14.5C7.72386 14.5 7.5 14.2761 7.5 14V12.9756C5.13777 12.7411 3.25894 10.8622 3.02441 8.5H2C1.72386 8.5 1.5 8.27614 1.5 8C1.5 7.72386 1.72386 7.5 2 7.5H3.02441C3.25893 5.1378 5.13782 3.25996 7.5 3.02539V2C7.5 1.72386 7.72386 1.5 8 1.5C8.27614 1.5 8.5 1.72386 8.5 2V3.02539C10.8622 3.25996 12.7411 5.1378 12.9756 7.5H14C14.2761 7.5 14.5 7.72386 14.5 8C14.5 8.27614 14.2761 8.5 14 8.5H12.9756C12.7411 10.8622 10.8622 12.7411 8.5 12.9756V14C8.5 14.2761 8.27614 14.5 8 14.5ZM7.5 11C7.5 10.7239 7.72386 10.5 8 10.5C8.27614 10.5 8.5 10.7239 8.5 11V11.9688C10.3093 11.7431 11.7421 10.3093 11.9678 8.5H11C10.7239 8.5 10.5 8.27614 10.5 8C10.5 7.72386 10.7239 7.5 11 7.5H11.9678C11.7421 5.69077 10.3092 4.25791 8.5 4.03223V5C8.5 5.27614 8.27614 5.5 8 5.5C7.72386 5.5 7.5 5.27614 7.5 5V4.03223C5.69077 4.25791 4.25791 5.69077 4.03223 7.5H5C5.27614 7.5 5.5 7.72386 5.5 8C5.5 8.27614 5.27614 8.5 5 8.5H4.03223C4.25791 10.3093 5.69071 11.7431 7.5 11.9688V11Z" fill="black" fill-opacity="0.9"/>
</svg>
