<svg width="16" height="16" viewBox="0 0 16 16" fill="none" xmlns="http://www.w3.org/2000/svg">
<path d="M9.85341 12.8534C9.65814 13.0487 9.34163 13.0487 9.14638 12.8534C8.9756 12.6826 8.95379 12.4186 9.08192 12.2245L9.14638 12.1464L11.2929 9.99992H7.49989C5.01461 9.99987 2.99989 7.98513 2.99989 5.49992V3.49992C2.99995 3.22386 3.22383 2.99997 3.49989 2.99992C3.776 2.99992 3.99984 3.22383 3.99989 3.49992V5.49992C3.99989 7.43293 5.56698 8.99987 7.49989 8.99992H11.2929L9.14638 6.85344C8.95121 6.65817 8.95116 6.34164 9.14638 6.14641C9.31721 5.97558 9.58122 5.95387 9.77528 6.08195L9.85341 6.14641L12.8534 9.14641C13.0487 9.34167 13.0487 9.65818 12.8534 9.85344L9.85341 12.8534Z" fill="black" fill-opacity="0.9"/>
</svg>
